<?xml version="1.0" encoding="UTF-8" standalone="no"?>
<!-- Created with Inkscape (http://www.inkscape.org/) -->
<svg xmlns:dc="http://purl.org/dc/elements/1.1/" xmlns:cc="http://creativecommons.org/ns#" xmlns:rdf="http://www.w3.org/1999/02/22-rdf-syntax-ns#" xmlns:svg="http://www.w3.org/2000/svg" xmlns="http://www.w3.org/2000/svg" xmlns:sodipodi="http://sodipodi.sourceforge.net/DTD/sodipodi-0.dtd" xmlns:inkscape="http://www.inkscape.org/namespaces/inkscape" width="22" height="22" viewBox="0 0 22 22.000001" id="svg4335" version="1.1" inkscape:version="0.91 r13725" sodipodi:docname="spectacle.svg">
  <defs id="defs4337"/>
  <sodipodi:namedview id="base" pagecolor="#ffffff" bordercolor="#666666" borderopacity="1.0" inkscape:pageopacity="0.0" inkscape:pageshadow="2" inkscape:zoom="11.2" inkscape:cx="23.401695" inkscape:cy="17.904111" inkscape:document-units="px" inkscape:current-layer="layer1" showgrid="false" units="px" inkscape:showpageshadow="false" borderlayer="true" inkscape:window-width="2560" inkscape:window-height="1017" inkscape:window-x="0" inkscape:window-y="0" inkscape:window-maximized="1"/>
  <metadata id="metadata4340">
    <rdf:RDF>
      <cc:Work rdf:about="">
        <dc:format>image/svg+xml</dc:format>
        <dc:type rdf:resource="http://purl.org/dc/dcmitype/StillImage"/>
        <dc:title/>
      </cc:Work>
    </rdf:RDF>
  </metadata>
  <g inkscape:label="Layer 1" inkscape:groupmode="layer" id="layer1" transform="translate(0,-1030.3621)">
    <path inkscape:connector-curvature="0" style="opacity:1;fill:#31363b;fill-opacity:1;stroke:none;stroke-width:2;stroke-linecap:round;stroke-linejoin:round;stroke-miterlimit:4;stroke-dasharray:none;stroke-opacity:1" d="m 2.9999997,1032.3621 0,1 -1,0 0,1 1,0 0,14 -1,0 0,1 1,0 0,1 1,0 0,-1 14.0000003,0 0,1 1,0 0,-1 1,0 0,-1 -1,0 0,-14 1,0 0,-1 -1,0 0,-1 -1,0 0,1 -14.0000003,0 0,-1 -1,0 z m 1,2 14.0000003,0 0,14 -14.0000003,0 0,-14 z m 1,1 0,11.2813 0,0.7187 12.0000003,0 0,-1 0,-1 0,-1 0,-1 0,-8 -12.0000003,0 z m 1,1 10.0000003,0 0,6 -2,-2 -3.34375,3.3438 -1.3437503,-1.3438 -0.0312,0 -3.28125,3.2813 0,-9.2813 z m 3,1 c -1.10457,0 -2,0.8954 -2,2 0,1.1046 0.89543,2 2,2 1.1045703,0 2.0000003,-0.8954 2.0000003,-2 0,-1.1046 -0.89543,-2 -2.0000003,-2 z" id="rect4767"/>
  </g>
</svg>